# xmcd CD database file
#
# Track frame offsets:
#	150
#	11872
#	26035
#	40302
#	51622
#	64590
#	76157
#	88807
#	111897
#	125270
#	140505
#	155467
#
# Disc length: 2308 seconds
#
# Revision: 0
# Processed by: cddbd v1.5.2PL0 Copyright (c) Steve Scherf et al.
# Submitted via: CDex 1.70beta2
#
DISCID=a209020c
DTITLE=Jet Stream - Jet Stream 9
DYEAR=1900
DGENRE=Lounge
TTITLE0=ミスター・ロンリー（城達也ナレーション）
TTITLE1=ブルースター
TTITLE2=ヘッドライト
TTITLE3=あなたと夜と音楽と
TTITLE4=夜は恋人
TTITLE5=エストレリータ
TTITLE6=ライムライト
TTITLE7=カフェモーツァルトワルツ（城達也ナレーション）
TTITLE8=星にスイング
TTITLE9=スターダスト
TTITLE10=死ぬほど愛して
TTITLE11=夢幻飛行（城達也ナレーション）
EXTD=
EXTT0=
EXTT1=
EXTT2=
EXTT3=
EXTT4=
EXTT5=
EXTT6=
EXTT7=
EXTT8=
EXTT9=
EXTT10=
EXTT11=
PLAYORDER=
